<?xml version="1.0" standalone="no"?>
<!DOCTYPE svg PUBLIC "-//W3C//DTD SVG 20010904//EN"
 "http://www.w3.org/TR/2001/REC-SVG-20010904/DTD/svg10.dtd">
<svg version="1.0" xmlns="http://www.w3.org/2000/svg"
 width="300.000000pt" height="300.000000pt" viewBox="0 0 300.000000 300.000000"
 preserveAspectRatio="xMidYMid meet">
<metadata>
Created by potrace 1.10, written by Peter Selinger 2001-2011
</metadata>
<g transform="translate(0.000000,300.000000) scale(0.100000,-0.100000)"
fill="#000000" stroke="none">
<path d="M161 1894 c0 -11 3 -14 6 -6 3 7 2 16 -1 19 -3 4 -6 -2 -5 -13z"/>
<path d="M515 1895 c22 -7 169 -12 150 -4 -11 4 -51 8 -90 8 -38 -1 -65 -2
-60 -4z"/>
<path d="M694 1871 c7 -11 46 -35 46 -28 0 3 -12 12 -26 22 -15 9 -23 12 -20
6z"/>
<path d="M408 1839 l-33 -31 38 27 c20 15 37 29 37 31 0 10 -12 2 -42 -27z"/>
<path d="M781 1795 c0 -5 6 -21 14 -35 8 -14 14 -20 14 -15 0 6 -6 21 -14 35
-8 14 -14 21 -14 15z"/>
<path d="M355 1779 c-4 -6 -5 -12 -2 -15 2 -3 7 2 10 11 7 17 1 20 -8 4z"/>
<path d="M449 1775 c-57 -31 -61 -112 -11 -192 19 -30 34 -43 50 -43 34 0 37
24 8 73 -29 49 -33 89 -11 107 21 18 49 4 62 -31 9 -24 17 -30 35 -27 14 2 24
12 28 27 7 33 35 49 57 35 26 -16 27 -39 3 -89 -25 -51 -21 -78 11 -73 35 5
62 51 67 112 4 51 2 57 -27 87 -29 28 -35 30 -79 25 -58 -8 -77 -8 -127 -1
-26 3 -49 0 -66 -10z m18 -37 c-12 -13 -24 -19 -26 -14 -2 5 4 15 15 23 28 21
35 15 11 -9z m88 10 c19 -9 31 -8 53 1 l27 13 -25 -29 c-14 -15 -26 -30 -27
-32 -1 -2 -16 10 -32 28 -33 35 -32 36 4 19z m163 -34 c-4 -3 -12 5 -18 18
-12 22 -12 22 6 6 10 -10 15 -20 12 -24z m-1 -46 c-3 -8 -6 -5 -6 6 -1 11 2
17 5 13 3 -3 4 -12 1 -19z m-7 -61 c0 -19 -10 -27 -26 -20 -21 8 -17 33 6 33
11 0 20 -6 20 -13z m-236 -13 c3 -8 2 -12 -4 -9 -6 3 -10 10 -10 16 0 14 7 11
14 -7z"/>
<path d="M967 1722 c-9 -2 -27 -22 -38 -44 l-21 -41 -21 42 c-15 29 -27 41
-41 40 -12 0 -15 -3 -8 -6 7 -3 12 -24 12 -53 0 -29 -5 -50 -12 -53 -7 -3 1
-5 17 -5 17 0 24 2 18 5 -8 3 -13 22 -12 46 l1 42 17 -38 c10 -21 21 -39 26
-40 4 -1 15 14 26 33 l18 35 1 -37 c0 -20 -6 -39 -12 -41 -7 -3 3 -5 22 -5 19
0 29 2 23 5 -8 3 -13 24 -13 53 0 30 5 50 13 53 18 6 5 14 -16 9z"/>
<path d="M1278 1718 c7 -7 12 -34 12 -60 0 -41 -3 -48 -20 -48 -17 0 -20 7
-20 40 0 38 -2 40 -30 40 -22 0 -30 -5 -30 -17 0 -15 2 -15 9 -4 10 15 41 8
41 -9 0 -5 -8 -10 -19 -10 -22 0 -45 -25 -37 -38 3 -6 36 -10 73 -10 38 0 62
2 56 5 -9 3 -13 26 -13 64 0 49 -3 59 -17 59 -13 0 -14 -3 -5 -12z m-38 -88
c0 -12 -28 -25 -36 -17 -9 9 6 27 22 27 8 0 14 -5 14 -10z"/>
<path d="M1335 1720 c-3 -5 1 -10 9 -10 9 0 16 5 16 10 0 6 -4 10 -9 10 -6 0
-13 -4 -16 -10z"/>
<path d="M333 1665 c0 -27 2 -38 4 -22 2 15 2 37 0 50 -2 12 -4 0 -4 -28z"/>
<path d="M1012 1678 c-28 -28 -7 -78 33 -78 12 0 26 5 33 12 7 7 12 21 12 33
0 12 -5 26 -12 33 -7 7 -21 12 -33 12 -12 0 -26 -5 -33 -12z m53 -33 c0 -23
-4 -30 -20 -30 -21 0 -31 25 -21 51 11 28 41 12 41 -21z"/>
<path d="M1108 1683 c6 -3 12 -20 12 -38 0 -18 -6 -36 -12 -38 -7 -3 1 -5 17
-5 17 0 24 2 18 5 -18 7 -16 60 1 66 8 3 17 1 20 -6 2 -7 5 -5 5 5 1 12 -8 16
-36 16 -21 0 -32 -3 -25 -5z"/>
<path d="M1329 1681 c9 -6 12 -21 9 -45 -3 -28 0 -36 12 -36 12 0 14 9 12 45
-3 38 -7 45 -26 45 -16 0 -18 -3 -7 -9z"/>
<path d="M1384 1678 c-4 -6 5 -21 21 -34 32 -25 27 -46 -5 -26 -16 10 -20 10
-20 -2 0 -18 32 -26 54 -14 23 13 20 33 -9 46 -28 13 -34 32 -10 32 8 0 15 -5
15 -11 0 -5 5 -7 10 -4 6 4 8 11 5 16 -9 13 -52 11 -61 -3z"/>
<path d="M790 1590 c0 -5 5 -10 11 -10 5 0 7 5 4 10 -3 6 -8 10 -11 10 -2 0
-4 -4 -4 -10z"/>
<path d="M350 1561 c0 -6 4 -13 10 -16 6 -3 7 1 4 9 -7 18 -14 21 -14 7z"/>
<path d="M769 1523 c-13 -16 -12 -17 4 -4 9 7 17 15 17 17 0 8 -8 3 -21 -13z"/>
<path d="M400 1496 c0 -2 8 -10 18 -17 15 -13 16 -12 3 4 -13 16 -21 21 -21
13z"/>
<path d="M478 1443 c7 -3 16 -2 19 1 4 3 -2 6 -13 5 -11 0 -14 -3 -6 -6z"/>
<path d="M646 1441 c-4 -5 3 -7 14 -4 23 6 26 13 6 13 -8 0 -17 -4 -20 -9z"/>
</g>
</svg>
